PathFileType	4	(X/Y/Z)	TestModele.trc	
DataRate	CameraRate	NumFrames	NumMarkers	Units	OrigDataRate	OrigDataStartFrame	OrigNumFrames	
100	100	11	11	m	100	66	0.99	
Frame#	Time	STER	XIPH	T10	C7	CLAV_SC	CLAV_post	CLAV_AC	SCAP_IA	SCAP_RS	SCAP_SA	ACRO_tip	
Frame#	s	x1	y1	z1	x2	y2	z2	x3	y3	z3	x4	y4	z4	x5	y5	z5	x6	y6	z6	x7	y7	z7	x8	y8	z8	x9	y9	z9	x10	y10	z10	x11	y11	z11	

67	0.6600000	0.1288597562	0.5116137376	0.1656830307	0.0845310705	0.5401863438	0.3135922944	0.0270402947	0.7182163172	0.1948905939	0.1317985192	0.5798079902	0.0271478607	0.1733751758	0.5103120176	0.1300537744	0.2103706618	0.5089361623	0.1784614916	0.2603935930	0.5226160408	0.2096348372	0.1493412239	0.6239142558	0.3575072019	0.2638940237	0.6375893127	0.3091648757	0.2909683933	0.6174529251	0.2774461074	0.2832296142	0.5097324530	0.2550078024	
68	0.6700000	0.1502798153	0.5209930160	0.1520427451	0.1245531224	0.4052295984	0.2549774082	-0.0389597535	0.5521088229	0.2829056602	0.0918206928	0.6574657175	0.1095125382	0.1812753453	0.5674704494	0.1410432272	0.2219712952	0.5475108067	0.1817779591	0.2627600858	0.5536453148	0.2260481813	0.1479512151	0.4381517840	0.3608217648	0.2279153629	0.5335101761	0.3734250878	0.2544267261	0.5605219410	0.3467401101	0.2972662018	0.5237536862	0.2519775590	
69	0.6800000	0.1767439776	0.5605665474	0.1450878675	0.2218687292	0.4106693785	0.1574641369	0.0007884188	0.4115108405	0.1720498403	0.0488352083	0.6469983503	0.1495573105	0.1720835095	0.6103566397	0.1721040440	0.2142352301	0.5900746709	0.2111647692	0.2400267494	0.5836417839	0.2655212379	0.2198153080	0.3727019847	0.2632560828	0.2216080006	0.4593032807	0.3534965028	0.2258836943	0.5052277564	0.3576482291	0.2847065911	0.5644380457	0.2855297516	
70	0.6900000	0.1914181870	0.6040895909	0.1633831057	0.2920559685	0.4835465994	0.1634075931	0.1168762148	0.4195792072	0.0437824240	0.0507047956	0.6415042475	0.1118955276	0.1523101267	0.6325705821	0.1930221911	0.1782839162	0.6095644051	0.2431215338	0.1785948613	0.5866501335	0.2991219772	0.2694566881	0.4041989876	0.2391885643	0.1908751320	0.4364265281	0.3310180601	0.1694912685	0.4743100488	0.3468971376	0.2141515044	0.5745830116	0.3360406838	
71	0.7000000	0.1885254595	0.6329095694	0.1873975851	0.2760603936	0.5089467181	0.2277637007	0.2084174093	0.4734938944	0.0197793782	0.1032894619	0.6849965026	0.0696144715	0.1383030542	0.6586500035	0.1921180593	0.1319143273	0.6280553639	0.2444345792	0.1011530395	0.5977001117	0.2867844555	0.2200647144	0.4217432936	0.2705411157	0.1013487881	0.4438800658	0.3031420941	0.0726270832	0.4799055657	0.3078114495	0.1096853144	0.5799864994	0.3356962222	
72	0.7100000	0.1786565060	0.6586377570	0.2003100597	0.1957200056	0.5132812572	0.2572214068	0.1974588751	0.4952849031	0.0363978075	0.1649480247	0.7326997223	0.0654842885	0.1432431111	0.7013806243	0.1896452687	0.1093251232	0.6786798737	0.2349013409	0.0575360586	0.6645764227	0.2628333236	0.1010925296	0.4561811822	0.2792079240	-0.0046689565	0.5225711451	0.2719132332	-0.0178684705	0.5668166392	0.2683516405	0.0426297443	0.6486621775	0.3108762238	
73	0.7200000	0.1787735224	0.6902654311	0.2086741753	0.1334919326	0.5525368342	0.2689981978	0.1019289914	0.5390808575	0.0501085638	0.1855243831	0.7643394579	0.0733281367	0.1664559871	0.7446318821	0.2000376528	0.1326235935	0.7397870298	0.2504932036	0.0847422864	0.7511690009	0.2856932229	0.0282837093	0.5463325155	0.3117336276	-0.0343197245	0.6546006932	0.3140015333	-0.0258858190	0.6998493850	0.3089024167	0.0715064669	0.7438158710	0.3362658430	
74	0.7300000	0.1962877064	0.7193906313	0.2140262639	0.1553215955	0.5865594525	0.2870757825	0.0188239011	0.6081079176	0.1138880303	0.1533119932	0.8076510889	0.0948026695	0.1947777234	0.7756552467	0.2131339856	0.1915300911	0.7709913022	0.2738098998	0.1728296618	0.7869569212	0.3290964546	0.0924990149	0.5954668053	0.3832459314	0.0677303349	0.7129516794	0.4183194038	0.0824082123	0.7558991755	0.4091189495	0.1865660432	0.7760277030	0.3789021500	
75	0.7400000	0.2221306531	0.7493809236	0.2044350641	0.2488620001	0.5995114291	0.2429467013	0.0333830113	0.6146115166	0.1936440927	0.1060177280	0.8429228832	0.1642010468	0.2145617331	0.8024215638	0.2213008452	0.2512163095	0.7866094940	0.2673474145	0.2706253255	0.7872046110	0.3246548846	0.2667426466	0.5743921082	0.3559473894	0.2577601092	0.6733031310	0.4319885311	0.2579697097	0.7195290667	0.4292145828	0.3142667632	0.7723328994	0.3504144346	
76	0.7500000	0.2393050200	0.7996266743	0.1880955867	0.3349042049	0.6921252165	0.1251447414	0.1393044349	0.5926214953	0.1556356231	0.0954577015	0.8135069682	0.2425599982	0.2230974161	0.8288897439	0.2330598829	0.2818846076	0.8249988167	0.2486416949	0.3280990810	0.8194378824	0.2873005703	0.4254250284	0.6521937392	0.1920651202	0.4236644204	0.6960723871	0.3091885429	0.4043599532	0.7306777378	0.3331548340	0.3802921759	0.8273041225	0.2857085465	
77	0.7600000	0.2388925717	0.8646191140	0.1964387612	0.3413478353	0.9002485094	0.0828956344	0.2447051403	0.7099690857	0.0233650972	0.1390440389	0.7536277338	0.2359643193	0.2290062871	0.8448481995	0.2477941281	0.2827568197	0.8706287629	0.2604475408	0.3364783631	0.8746914296	0.2879920631	0.4598028289	0.9020300442	0.1125361406	0.4815949298	0.8578905742	0.2275280671	0.4584472787	0.8503036059	0.2669133437	0.3722569723	0.9126487370	0.2960917954	
